<svg version="1.0" xmlns="http://www.w3.org/2000/svg" width="1706.7" height="1706.7" viewBox="0 0 1280 1280"><path d="M612.5 161.6A480.1 480.1 0 00353 256.4a527.3 527.3 0 00-79.1 74.6 480 480 0 00-111.1 265 759.9 759.9 0 000 88c11.8 115.1 59 215 139.1 295a467.2 467.2 0 00127.2 91 460.8 460.8 0 00200.9 48.4c20 .1 24.5-.2 29.9-1.7a81 81 0 0056.7-56.8 107 107 0 000-39.9 88.4 88.4 0 00-13.6-27.5c-19-23.3-24.2-36-24.3-59a68.2 68.2 0 018.5-36.3 80.7 80.7 0 0152.3-42.4c7.7-2.1 10.2-2.2 75.5-2.8 72.4-.7 74.6-.9 98.6-6.5a266.5 266.5 0 00160.9-112c38.8-58.3 51.9-123.8 40.5-202-18.2-124.2-96.7-234.5-215.9-302.9A517 517 0 00693 163.5a873.4 873.4 0 00-80.5-1.9zm-85 106.8a81.4 81.4 0 0159.5 86.9A80.6 80.6 0 11432.3 315a81.7 81.7 0 0157.2-47.4c9-2 29.5-1.5 38 .8zm262.3-.8a80.8 80.8 0 0162.8 63.4c2 9.9 1.5 27.2-1 36.5a81 81 0 11-136.8-76.7 87.9 87.9 0 0132.7-20.8 87.7 87.7 0 0142.3-2.4zM358.4 480a81.3 81.3 0 0166.7 60.5 88.5 88.5 0 010 39 80.9 80.9 0 01-155.3 5.4c-3.1-9-3.3-10-3.3-24.9 0-14.9.2-15.9 3.3-25a76.1 76.1 0 0120.1-32.1 78.9 78.9 0 0168.5-22.9zm596 1.9a76.7 76.7 0 0135.2 20.6 75.3 75.3 0 0120.6 32.5c3.1 9.1 3.3 10.1 3.3 25s-.2 15.9-3.3 24.9a80.9 80.9 0 01-155.3-5.4 88.5 88.5 0 010-39 81.7 81.7 0 0165.9-60.5c8.4-1.3 24.6-.4 33.6 1.9z"/></svg>