<svg version="1.0" xmlns="http://www.w3.org/2000/svg" width="1706.7" height="1706.7" viewBox="0 0 1280 1280"><path d="M927 277c-21 2-46 8-64 14a276 276 0 00-110 80 218 218 0 00-47 113c0 2-4 2-62 2h-63l-5-10a214 214 0 00-184-99 213 213 0 00-171 80c-28 33-42 74-42 118 0 53 20 99 59 137 32 32 67 50 113 58l12 2 1 93v92l2 1c2 2 5 2 24 2s22 0 22 2l1 32c0 30 0 31 2 32l196 1h194l1-2c2-2 2-7 2-34v-31h38l39-1c1-1 2-5 2-21v-21l3 1c2 0 2 0 3 10 0 10 1 11 3 13l2 3h41c39 0 41 0 42-2l1-93c0-80 0-91-2-93l-1-2h-41c-37 0-41 0-43 2-2 1-2 3-2 16l-1 14h-5v-50h3l16 2a254 254 0 00236-75 216 216 0 0060-182 218 218 0 00-86-149c-39-32-83-50-135-55h-54zm76 64c21 4 42 15 66 32 14 11 22 19 30 29 8 9 14 19 12 21 0 2-45 23-59 29-9 4-11 4-17 4-17 0-41-15-49-30l-3-6 1-38 1-40c2-2 8-3 18-1zm-89 1c3 0 5 1 5 2 2 4 8 73 8 78-1 7-5 14-14 22-14 14-30 19-46 14l-86-31c-3-1-2-2 1-9 14-27 54-60 89-71 15-5 32-7 43-5zm-471 95c16 2 31 9 50 21 11 8 28 23 28 26 0 2-5 2-50 2h-50v-23c0-18 1-24 2-25 1-2 8-3 20-1zm-75 1l1 24 1 22-2 3c-3 2-3 3-3 12s0 10-3 14c-9 15-24 22-40 20-7-1-64-23-65-25s7-17 14-26l14-14c23-20 41-28 66-30h16zm771 48c4 4 6 17 6 32 0 25-5 48-16 74-7 17-21 37-26 37-2 0-44-39-50-46-8-10-15-29-15-40 0-9 11-23 27-35 12-9 18-11 46-18a1483 1483 0 0128-4zm-169 5c7 4 12 12 12 21 0 10-5 17-15 20-10 2-24-1-29-8s-6-19-2-27c2-5 3-5 8-7 8-3 20-2 26 1zm-695 78l32 5c2 1 5 3 7 7 4 7 5 10 6 22 2 12 0 23-3 30-4 7-35 43-38 43-2 0-4-2-8-6a143 143 0 01-29-104c1-1 0-2 33 3zm700 18c8 3 17 11 23 20 9 11 43 65 43 67l-9 6c-15 7-34 10-65 10-22 0-35-1-50-4-11-3-28-8-29-10l-1-15v-12l15-24 18-29 10-7c9-5 15-6 28-6 10 0 11 1 17 4zM364 694v31h-3c-4 0-15-4-22-8-4-2-5-3-5-5s27-48 29-48l1 31z"/></svg>