<svg version="1.0" xmlns="http://www.w3.org/2000/svg" width="1614.7" height="1706.7" viewBox="0 0 1211 1280"><path d="M512 214l-12 2c-8 2-17 2-37 3l-33 2c-8 3-35 12-45 17-7 3-7 3-25 4-17 1-19 1-24 3-8 4-29 18-33 23-7 7-11 18-14 36-1 9-2 10-17 18-26 14-30 19-50 57l-11 21 5 16c7 21 7 28 2 38l-5 10-7 11-4 7 3 7c3 6 3 8 3 16 0 11 0 12 12 20 17 10 26 18 30 25 2 6 12 18 18 24l41 34c5 3 8 2 11-3 4-8 10-9 48-9h28l10-5c14-8 26-13 34-14 13-2 20 2 28 17 8 16 12 17 29 9l12-5c5 0 20 13 20 17 0 2-1 5-3 7-6 9-8 14-9 23l-4 18-2 10 12 14 16 18 9 15c10 15 9 14 11 31 1 14 1 15 6 26 7 16 7 17-3 27l-10 12c-7 10-9 33-3 49 2 7 10 24 14 29l14 25c3 9 5 18 6 33 1 14 1 16 4 22l11 16c8 11 13 19 17 29 2 7 5 19 5 24 0 6 6 15 10 19 5 3 13 5 17 4l6-2c6-3 18-5 37-6 20-1 27-2 36-8 11-5 18-12 44-40l25-26v-12l-1-12 6-4 12-7c8-4 13-8 14-12 0-3-1-11-6-27l-4-11 6-10 11-13c4-4 16-10 22-13 6-2 11-6 18-15 7-10 9-17 10-33l1-27v-12l-5-6-6-10c-2-4-5-18-7-32s0-19 8-27l13-15c25-32 40-46 59-56l13-9c5-5 7-8 10-15l15-24c5-9 12-19 13-23 5-8 11-27 12-34s-1-8-7-8-30 7-44 13c-11 5-20 7-29 7-12 0-14-2-15-14l-5-14c-4-7-6-10-18-22l-15-15-7-15-13-24c-7-10-13-21-16-29a1146 1146 0 00-48-93c-13-25-14-26-27-24-17 3-24 7-35 17-8 8-10 9-12 7 0-2 11-13 17-17 4-2 7-7 6-9 0-3-4-3-25-3-18-1-18-1-31-5-22-7-27-6-43 9-9 8-13 10-19 10-9 0-17-2-33-10l-25-11c-16-4-42-19-42-24l6-4c8-4 8-5 7-12-4-15-13-23-24-21zm294 439c5 3 0 18-10 28-6 6-9 6-12 2-2-3-2-4-2-13 0-12 0-14 5-17 4-2 15-3 19 0z"/></svg>