<svg xmlns="http://www.w3.org/2000/svg" width="1000" height="1000"><g stroke="#000"><path d="M230 10A199 196 0 0031 207a199 196 0 0064 144A427 442 0 01378 76a199 196 0 00-148-66z" stroke-width="1.5"/><path d="M3189 755c-203-254 143-462 301-269 68-19 139-17 212-1 171-196 500 31 301 272" fill="none"/><circle cx="498.5" cy="501.9" r="55.1" stroke-width="1.2"/><path d="M759 8c-57 0-113 23-150 65-14-3-26-12-116-13-114 0-216 47-297 129a440 440 0 000 617 424 424 0 00606 0 440 440 0 0097-463A195 195 0 00759 8zM499 129a372 372 0 11-1 745 372 372 0 011-745z" stroke-width="2.6"/><path d="M530 456l106-89 67-56c17-9 36 3 22 23L551 481zM390 467c6-18 18-33 30-48l-116-74c-32-20-65 29-36 47z" fill-rule="evenodd"/></g></svg>