<svg version="1.0" xmlns="http://www.w3.org/2000/svg" width="1706.7" height="1548" viewBox="0 0 1280 1161"><path d="M400 1c-62 6-116 40-150 94-22 36-36 80-43 135-2 16-2 23-2 59v41l-11 5c-84 44-143 97-172 157-36 72-27 148 23 216a460 460 0 00144 116l16 7v40c0 43 0 55 6 85 16 95 62 161 132 190 49 20 108 20 171 0a515 515 0 00126-63l11 6c44 30 94 52 138 63 110 28 202-10 250-103a345 345 0 0037-178v-40l9-5c74-38 131-86 163-137 44-72 43-153-6-225a472 472 0 00-156-129l-10-5v-40c-1-42-1-54-6-82-14-83-48-142-103-177-25-16-57-27-88-30-67-6-145 18-224 68l-16 9-14-9C546 19 467-5 400 1zm42 34c50 5 107 26 162 61l6 4-18 14a907 907 0 00-143 141 854 854 0 00-211 59l2-79c9-70 31-123 68-158 34-32 82-47 133-42zm433 0c97 9 157 88 166 219v59l-4-1a912 912 0 00-206-57l-16-17c-44-51-86-92-132-128l-13-10 6-4c69-44 143-67 199-61zm-222 95a807 807 0 01124 117l-22-2c-42-4-54-5-115-5a912 912 0 00-137 7l43-46a825 825 0 0194-81l13 10zm69 146c41 3 86 9 89 11a1206 1206 0 01162 275l7 18-6 14a1203 1203 0 01-163 280c-3 2-51 8-97 11-23 2-124 2-147 0-47-3-95-9-98-11a1127 1127 0 01-166-286l-3-8 7-18a1181 1181 0 01164-276 901 901 0 01120-11c18-1 112 0 131 1zm-310 30a1259 1259 0 00-129 225 694 694 0 01-41-181l39-17a896 896 0 01137-38c2 0 1 1-6 11zm469-7a900 900 0 01157 51 957 957 0 01-41 182l-7-16a1234 1234 0 00-128-221l19 4zm-671 80c8 55 24 122 46 182l7 20-2 6a1213 1213 0 00-53 208l-12-6c-81-45-134-99-153-157-12-35-12-68 0-103 15-45 50-88 104-127 15-11 58-36 60-36l3 13zm879-4c80 45 129 96 148 154 12 35 12 68 0 103-19 58-72 112-153 157l-12 6-2-13c-8-55-25-122-46-182l-7-19 2-8a954 954 0 0054-207l16 9zM291 645a1246 1246 0 00128 221 621 621 0 01-116-31c-22-7-59-22-61-24a667 667 0 0141-182l8 16zm712 1a839 839 0 0135 165 890 890 0 01-177 55l6-10a1245 1245 0 00130-227l6 17zM256 854c55 22 119 39 185 51l11 2 8 10a947 947 0 00148 145c-7 6-32 20-47 27-103 52-191 50-252-5-37-33-60-88-68-159-2-14-4-78-3-78l18 7zm786 16c0 66-10 116-30 158-36 74-103 108-187 96-45-6-97-27-151-60l-4-3 8-6c45-35 97-84 142-138l8-10 11-2a943 943 0 00202-57l1 22zm-522 45c37 5 59 5 120 5s83 0 120-5c18-2 18-2 14 2a986 986 0 01-132 122c-3 2-2 2-21-13a839 839 0 01-116-109c-3-4-4-4 15-1z"/><path d="M623 376v34h34v-68h-34v34zM471 412l-12 11 24 25 25 24 12-12 12-12-24-24-25-24-12 12zM773 424l-24 24 12 12 12 12 24-24 24-24-12-12-12-12-24 24zM629 436c-35 3-66 17-91 42a145 145 0 1091-42zM401 564v17l1 17h67v-35h-33l-35 1zM811 581v17h34l33-1 1-16v-17l-34-1h-34v18zM483 713l-24 24 12 13 12 12 24-25 25-24-12-12-12-12-25 24zM761 701l-12 12 24 24 24 24 12-11 12-12-24-25-24-24-12 12zM623 785v34h34v-68h-34v34z"/></svg>